<?xml version="1.0" standalone="no"?>
<!DOCTYPE svg PUBLIC "-//W3C//DTD SVG 1.1//EN" "http://www.w3.org/Graphics/SVG/1.1/DTD/svg11.dtd">
<!-- Created with WaveDrom -->
<svg xmlns="http://www.w3.org/2000/svg" width="800" height="242" viewBox="0 0 800 242" class="WaveDrom" xmlns:xlink="http://www.w3.org/1999/xlink"><g transform="translate(0.5,0.5)" text-anchor="middle" font-size="14" font-family="sans-serif" font-weight="normal"><g transform="translate(4,207)"><g stroke="black" stroke-width="1" stroke-linecap="round"><line x2="791"/><line y2="31"/><line x2="791" y1="31" y2="31"/><line x1="791" x2="791" y2="31"/><line x1="770" x2="770" y2="3"/><line x1="770" x2="770" y1="31" y2="28"/><line x1="748" x2="748" y2="3"/><line x1="748" x2="748" y1="31" y2="28"/><line x1="727" x2="727" y2="31"/><line x1="705" x2="705" y2="3"/><line x1="705" x2="705" y1="31" y2="28"/><line x1="684" x2="684" y2="3"/><line x1="684" x2="684" y1="31" y2="28"/><line x1="663" x2="663" y2="3"/><line x1="663" x2="663" y1="31" y2="28"/><line x1="641" x2="641" y2="3"/><line x1="641" x2="641" y1="31" y2="28"/><line x1="620" x2="620" y2="3"/><line x1="620" x2="620" y1="31" y2="28"/><line x1="599" x2="599" y2="3"/><line x1="599" x2="599" y1="31" y2="28"/><line x1="577" x2="577" y2="3"/><line x1="577" x2="577" y1="31" y2="28"/><line x1="556" x2="556" y2="3"/><line x1="556" x2="556" y1="31" y2="28"/><line x1="534" x2="534" y2="3"/><line x1="534" x2="534" y1="31" y2="28"/><line x1="513" x2="513" y2="31"/><line x1="492" x2="492" y2="3"/><line x1="492" x2="492" y1="31" y2="28"/><line x1="470" x2="470" y2="3"/><line x1="470" x2="470" y1="31" y2="28"/><line x1="449" x2="449" y2="3"/><line x1="449" x2="449" y1="31" y2="28"/><line x1="428" x2="428" y2="3"/><line x1="428" x2="428" y1="31" y2="28"/><line x1="406" x2="406" y2="3"/><line x1="406" x2="406" y1="31" y2="28"/><line x1="385" x2="385" y2="31"/><line x1="363" x2="363" y2="31"/><line x1="342" x2="342" y2="3"/><line x1="342" x2="342" y1="31" y2="28"/><line x1="321" x2="321" y2="3"/><line x1="321" x2="321" y1="31" y2="28"/><line x1="299" x2="299" y2="3"/><line x1="299" x2="299" y1="31" y2="28"/><line x1="278" x2="278" y2="3"/><line x1="278" x2="278" y1="31" y2="28"/><line x1="257" x2="257" y2="3"/><line x1="257" x2="257" y1="31" y2="28"/><line x1="235" x2="235" y2="3"/><line x1="235" x2="235" y1="31" y2="28"/><line x1="214" x2="214" y2="3"/><line x1="214" x2="214" y1="31" y2="28"/><line x1="192" x2="192" y2="3"/><line x1="192" x2="192" y1="31" y2="28"/><line x1="171" x2="171" y2="3"/><line x1="171" x2="171" y1="31" y2="28"/><line x1="150" x2="150" y2="3"/><line x1="150" x2="150" y1="31" y2="28"/><line x1="128" x2="128" y2="3"/><line x1="128" x2="128" y1="31" y2="28"/><line x1="107" x2="107" y2="3"/><line x1="107" x2="107" y1="31" y2="28"/><line x1="86" x2="86" y2="3"/><line x1="86" x2="86" y1="31" y2="28"/><line x1="64" x2="64" y2="3"/><line x1="64" x2="64" y1="31" y2="28"/><line x1="43" x2="43" y2="3"/><line x1="43" x2="43" y1="31" y2="28"/><line x1="21" x2="21" y2="31"/></g><g><g><rect x="385" width="128" height="31" field="undefined" style="fill-opacity:0.1"/></g><g transform="translate(11,-11)"/><g transform="translate(11,15)"><g transform="translate(748)"><text y="6"><tspan>RSHIFT</tspan></text></g><g transform="translate(609)"><text y="6"><tspan>First Operand (wire)</tspan></text></g><g transform="translate(363)"><text y="6"><tspan>1</tspan></text></g><g transform="translate(182)"><text y="6"><tspan>Second Operand (uint16)</tspan></text></g><g transform="translate(0)"><text y="6"><tspan>0</tspan></text></g></g><g transform="translate(11,39)"/></g></g><g transform="translate(4,176)"><g stroke="black" stroke-width="1" stroke-linecap="round"><line x2="791"/><line y2="31"/><line x2="791" y1="31" y2="31"/><line x1="791" x2="791" y2="31"/><line x1="770" x2="770" y2="3"/><line x1="770" x2="770" y1="31" y2="28"/><line x1="748" x2="748" y2="3"/><line x1="748" x2="748" y1="31" y2="28"/><line x1="727" x2="727" y2="31"/><line x1="705" x2="705" y2="3"/><line x1="705" x2="705" y1="31" y2="28"/><line x1="684" x2="684" y2="3"/><line x1="684" x2="684" y1="31" y2="28"/><line x1="663" x2="663" y2="3"/><line x1="663" x2="663" y1="31" y2="28"/><line x1="641" x2="641" y2="3"/><line x1="641" x2="641" y1="31" y2="28"/><line x1="620" x2="620" y2="3"/><line x1="620" x2="620" y1="31" y2="28"/><line x1="599" x2="599" y2="3"/><line x1="599" x2="599" y1="31" y2="28"/><line x1="577" x2="577" y2="3"/><line x1="577" x2="577" y1="31" y2="28"/><line x1="556" x2="556" y2="3"/><line x1="556" x2="556" y1="31" y2="28"/><line x1="534" x2="534" y2="3"/><line x1="534" x2="534" y1="31" y2="28"/><line x1="513" x2="513" y2="31"/><line x1="492" x2="492" y2="3"/><line x1="492" x2="492" y1="31" y2="28"/><line x1="470" x2="470" y2="3"/><line x1="470" x2="470" y1="31" y2="28"/><line x1="449" x2="449" y2="3"/><line x1="449" x2="449" y1="31" y2="28"/><line x1="428" x2="428" y2="3"/><line x1="428" x2="428" y1="31" y2="28"/><line x1="406" x2="406" y2="3"/><line x1="406" x2="406" y1="31" y2="28"/><line x1="385" x2="385" y2="31"/><line x1="363" x2="363" y2="31"/><line x1="342" x2="342" y2="3"/><line x1="342" x2="342" y1="31" y2="28"/><line x1="321" x2="321" y2="3"/><line x1="321" x2="321" y1="31" y2="28"/><line x1="299" x2="299" y2="3"/><line x1="299" x2="299" y1="31" y2="28"/><line x1="278" x2="278" y2="3"/><line x1="278" x2="278" y1="31" y2="28"/><line x1="257" x2="257" y2="3"/><line x1="257" x2="257" y1="31" y2="28"/><line x1="235" x2="235" y2="3"/><line x1="235" x2="235" y1="31" y2="28"/><line x1="214" x2="214" y2="3"/><line x1="214" x2="214" y1="31" y2="28"/><line x1="192" x2="192" y2="3"/><line x1="192" x2="192" y1="31" y2="28"/><line x1="171" x2="171" y2="3"/><line x1="171" x2="171" y1="31" y2="28"/><line x1="150" x2="150" y2="3"/><line x1="150" x2="150" y1="31" y2="28"/><line x1="128" x2="128" y2="3"/><line x1="128" x2="128" y1="31" y2="28"/><line x1="107" x2="107" y2="3"/><line x1="107" x2="107" y1="31" y2="28"/><line x1="86" x2="86" y2="3"/><line x1="86" x2="86" y1="31" y2="28"/><line x1="64" x2="64" y2="3"/><line x1="64" x2="64" y1="31" y2="28"/><line x1="43" x2="43" y2="3"/><line x1="43" x2="43" y1="31" y2="28"/><line x1="21" x2="21" y2="31"/></g><g><g><rect x="385" width="128" height="31" field="undefined" style="fill-opacity:0.1"/></g><g transform="translate(11,-11)"/><g transform="translate(11,15)"><g transform="translate(748)"><text y="6"><tspan>LSHIFT</tspan></text></g><g transform="translate(609)"><text y="6"><tspan>First Operand (wire)</tspan></text></g><g transform="translate(363)"><text y="6"><tspan>1</tspan></text></g><g transform="translate(182)"><text y="6"><tspan>Second Operand (uint16)</tspan></text></g><g transform="translate(0)"><text y="6"><tspan>0</tspan></text></g></g><g transform="translate(11,39)"/></g></g><g transform="translate(4,145)"><g stroke="black" stroke-width="1" stroke-linecap="round"><line x2="791"/><line y2="31"/><line x2="791" y1="31" y2="31"/><line x1="791" x2="791" y2="31"/><line x1="770" x2="770" y2="3"/><line x1="770" x2="770" y1="31" y2="28"/><line x1="748" x2="748" y2="3"/><line x1="748" x2="748" y1="31" y2="28"/><line x1="727" x2="727" y2="31"/><line x1="705" x2="705" y2="3"/><line x1="705" x2="705" y1="31" y2="28"/><line x1="684" x2="684" y2="3"/><line x1="684" x2="684" y1="31" y2="28"/><line x1="663" x2="663" y2="3"/><line x1="663" x2="663" y1="31" y2="28"/><line x1="641" x2="641" y2="3"/><line x1="641" x2="641" y1="31" y2="28"/><line x1="620" x2="620" y2="3"/><line x1="620" x2="620" y1="31" y2="28"/><line x1="599" x2="599" y2="3"/><line x1="599" x2="599" y1="31" y2="28"/><line x1="577" x2="577" y2="3"/><line x1="577" x2="577" y1="31" y2="28"/><line x1="556" x2="556" y2="3"/><line x1="556" x2="556" y1="31" y2="28"/><line x1="534" x2="534" y2="3"/><line x1="534" x2="534" y1="31" y2="28"/><line x1="513" x2="513" y2="31"/><line x1="492" x2="492" y2="3"/><line x1="492" x2="492" y1="31" y2="28"/><line x1="470" x2="470" y2="3"/><line x1="470" x2="470" y1="31" y2="28"/><line x1="449" x2="449" y2="3"/><line x1="449" x2="449" y1="31" y2="28"/><line x1="428" x2="428" y2="3"/><line x1="428" x2="428" y1="31" y2="28"/><line x1="406" x2="406" y2="3"/><line x1="406" x2="406" y1="31" y2="28"/><line x1="385" x2="385" y2="31"/><line x1="363" x2="363" y2="31"/><line x1="342" x2="342" y2="3"/><line x1="342" x2="342" y1="31" y2="28"/><line x1="321" x2="321" y2="3"/><line x1="321" x2="321" y1="31" y2="28"/><line x1="299" x2="299" y2="3"/><line x1="299" x2="299" y1="31" y2="28"/><line x1="278" x2="278" y2="3"/><line x1="278" x2="278" y1="31" y2="28"/><line x1="257" x2="257" y2="3"/><line x1="257" x2="257" y1="31" y2="28"/><line x1="235" x2="235" y2="3"/><line x1="235" x2="235" y1="31" y2="28"/><line x1="214" x2="214" y2="3"/><line x1="214" x2="214" y1="31" y2="28"/><line x1="192" x2="192" y2="3"/><line x1="192" x2="192" y1="31" y2="28"/><line x1="171" x2="171" y2="3"/><line x1="171" x2="171" y1="31" y2="28"/><line x1="150" x2="150" y2="3"/><line x1="150" x2="150" y1="31" y2="28"/><line x1="128" x2="128" y2="3"/><line x1="128" x2="128" y1="31" y2="28"/><line x1="107" x2="107" y2="3"/><line x1="107" x2="107" y1="31" y2="28"/><line x1="86" x2="86" y2="3"/><line x1="86" x2="86" y1="31" y2="28"/><line x1="64" x2="64" y2="3"/><line x1="64" x2="64" y1="31" y2="28"/><line x1="43" x2="43" y2="3"/><line x1="43" x2="43" y1="31" y2="28"/><line x1="21" x2="21" y2="31"/></g><g><g><rect x="385" width="128" height="31" field="undefined" style="fill-opacity:0.1"/></g><g transform="translate(11,-11)"/><g transform="translate(11,15)"><g transform="translate(748)"><text y="6"><tspan>OR</tspan></text></g><g transform="translate(609)"><text y="6"><tspan>First Operand (wire)</tspan></text></g><g transform="translate(363)"><text y="6"><tspan>1</tspan></text></g><g transform="translate(182)"><text y="6"><tspan>Second Operand (wire or uint16)</tspan></text></g><g transform="translate(0)"><text y="6"><tspan>T</tspan></text></g></g><g transform="translate(11,39)"/></g></g><g transform="translate(4,114)"><g stroke="black" stroke-width="1" stroke-linecap="round"><line x2="791"/><line y2="31"/><line x2="791" y1="31" y2="31"/><line x1="791" x2="791" y2="31"/><line x1="770" x2="770" y2="3"/><line x1="770" x2="770" y1="31" y2="28"/><line x1="748" x2="748" y2="3"/><line x1="748" x2="748" y1="31" y2="28"/><line x1="727" x2="727" y2="31"/><line x1="705" x2="705" y2="3"/><line x1="705" x2="705" y1="31" y2="28"/><line x1="684" x2="684" y2="3"/><line x1="684" x2="684" y1="31" y2="28"/><line x1="663" x2="663" y2="3"/><line x1="663" x2="663" y1="31" y2="28"/><line x1="641" x2="641" y2="3"/><line x1="641" x2="641" y1="31" y2="28"/><line x1="620" x2="620" y2="3"/><line x1="620" x2="620" y1="31" y2="28"/><line x1="599" x2="599" y2="3"/><line x1="599" x2="599" y1="31" y2="28"/><line x1="577" x2="577" y2="3"/><line x1="577" x2="577" y1="31" y2="28"/><line x1="556" x2="556" y2="3"/><line x1="556" x2="556" y1="31" y2="28"/><line x1="534" x2="534" y2="3"/><line x1="534" x2="534" y1="31" y2="28"/><line x1="513" x2="513" y2="31"/><line x1="492" x2="492" y2="3"/><line x1="492" x2="492" y1="31" y2="28"/><line x1="470" x2="470" y2="3"/><line x1="470" x2="470" y1="31" y2="28"/><line x1="449" x2="449" y2="3"/><line x1="449" x2="449" y1="31" y2="28"/><line x1="428" x2="428" y2="3"/><line x1="428" x2="428" y1="31" y2="28"/><line x1="406" x2="406" y2="3"/><line x1="406" x2="406" y1="31" y2="28"/><line x1="385" x2="385" y2="31"/><line x1="363" x2="363" y2="31"/><line x1="342" x2="342" y2="3"/><line x1="342" x2="342" y1="31" y2="28"/><line x1="321" x2="321" y2="3"/><line x1="321" x2="321" y1="31" y2="28"/><line x1="299" x2="299" y2="3"/><line x1="299" x2="299" y1="31" y2="28"/><line x1="278" x2="278" y2="3"/><line x1="278" x2="278" y1="31" y2="28"/><line x1="257" x2="257" y2="3"/><line x1="257" x2="257" y1="31" y2="28"/><line x1="235" x2="235" y2="3"/><line x1="235" x2="235" y1="31" y2="28"/><line x1="214" x2="214" y2="3"/><line x1="214" x2="214" y1="31" y2="28"/><line x1="192" x2="192" y2="3"/><line x1="192" x2="192" y1="31" y2="28"/><line x1="171" x2="171" y2="3"/><line x1="171" x2="171" y1="31" y2="28"/><line x1="150" x2="150" y2="3"/><line x1="150" x2="150" y1="31" y2="28"/><line x1="128" x2="128" y2="3"/><line x1="128" x2="128" y1="31" y2="28"/><line x1="107" x2="107" y2="3"/><line x1="107" x2="107" y1="31" y2="28"/><line x1="86" x2="86" y2="3"/><line x1="86" x2="86" y1="31" y2="28"/><line x1="64" x2="64" y2="3"/><line x1="64" x2="64" y1="31" y2="28"/><line x1="43" x2="43" y2="3"/><line x1="43" x2="43" y1="31" y2="28"/><line x1="21" x2="21" y2="31"/></g><g><g><rect x="385" width="128" height="31" field="undefined" style="fill-opacity:0.1"/></g><g transform="translate(11,-11)"/><g transform="translate(11,15)"><g transform="translate(748)"><text y="6"><tspan>AND</tspan></text></g><g transform="translate(609)"><text y="6"><tspan>First Operand (wire)</tspan></text></g><g transform="translate(363)"><text y="6"><tspan>1</tspan></text></g><g transform="translate(182)"><text y="6"><tspan>Second Operand (wire or uint16)</tspan></text></g><g transform="translate(0)"><text y="6"><tspan>T</tspan></text></g></g><g transform="translate(11,39)"/></g></g><g transform="translate(4,83)"><g stroke="black" stroke-width="1" stroke-linecap="round"><line x2="791"/><line y2="31"/><line x2="791" y1="31" y2="31"/><line x1="791" x2="791" y2="31"/><line x1="770" x2="770" y2="3"/><line x1="770" x2="770" y1="31" y2="28"/><line x1="748" x2="748" y2="3"/><line x1="748" x2="748" y1="31" y2="28"/><line x1="727" x2="727" y2="31"/><line x1="705" x2="705" y2="3"/><line x1="705" x2="705" y1="31" y2="28"/><line x1="684" x2="684" y2="3"/><line x1="684" x2="684" y1="31" y2="28"/><line x1="663" x2="663" y2="3"/><line x1="663" x2="663" y1="31" y2="28"/><line x1="641" x2="641" y2="3"/><line x1="641" x2="641" y1="31" y2="28"/><line x1="620" x2="620" y2="3"/><line x1="620" x2="620" y1="31" y2="28"/><line x1="599" x2="599" y2="3"/><line x1="599" x2="599" y1="31" y2="28"/><line x1="577" x2="577" y2="3"/><line x1="577" x2="577" y1="31" y2="28"/><line x1="556" x2="556" y2="3"/><line x1="556" x2="556" y1="31" y2="28"/><line x1="534" x2="534" y2="3"/><line x1="534" x2="534" y1="31" y2="28"/><line x1="513" x2="513" y2="31"/><line x1="492" x2="492" y2="3"/><line x1="492" x2="492" y1="31" y2="28"/><line x1="470" x2="470" y2="3"/><line x1="470" x2="470" y1="31" y2="28"/><line x1="449" x2="449" y2="3"/><line x1="449" x2="449" y1="31" y2="28"/><line x1="428" x2="428" y2="3"/><line x1="428" x2="428" y1="31" y2="28"/><line x1="406" x2="406" y2="3"/><line x1="406" x2="406" y1="31" y2="28"/><line x1="385" x2="385" y2="31"/><line x1="363" x2="363" y2="31"/><line x1="342" x2="342" y2="3"/><line x1="342" x2="342" y1="31" y2="28"/><line x1="321" x2="321" y2="3"/><line x1="321" x2="321" y1="31" y2="28"/><line x1="299" x2="299" y2="3"/><line x1="299" x2="299" y1="31" y2="28"/><line x1="278" x2="278" y2="3"/><line x1="278" x2="278" y1="31" y2="28"/><line x1="257" x2="257" y2="3"/><line x1="257" x2="257" y1="31" y2="28"/><line x1="235" x2="235" y2="3"/><line x1="235" x2="235" y1="31" y2="28"/><line x1="214" x2="214" y2="3"/><line x1="214" x2="214" y1="31" y2="28"/><line x1="192" x2="192" y2="3"/><line x1="192" x2="192" y1="31" y2="28"/><line x1="171" x2="171" y2="3"/><line x1="171" x2="171" y1="31" y2="28"/><line x1="150" x2="150" y2="3"/><line x1="150" x2="150" y1="31" y2="28"/><line x1="128" x2="128" y2="3"/><line x1="128" x2="128" y1="31" y2="28"/><line x1="107" x2="107" y2="3"/><line x1="107" x2="107" y1="31" y2="28"/><line x1="86" x2="86" y2="3"/><line x1="86" x2="86" y1="31" y2="28"/><line x1="64" x2="64" y2="3"/><line x1="64" x2="64" y1="31" y2="28"/><line x1="43" x2="43" y2="3"/><line x1="43" x2="43" y1="31" y2="28"/><line x1="21" x2="21" y2="3"/><line x1="21" x2="21" y1="31" y2="28"/></g><g><g><rect x="385" width="128" height="31" field="undefined" style="fill-opacity:0.1"/><rect width="363" height="31" field="undefined" style="fill-opacity:0.1"/></g><g transform="translate(11,-11)"/><g transform="translate(11,15)"><g transform="translate(748)"><text y="6"><tspan>NOT</tspan></text></g><g transform="translate(609)"><text y="6"><tspan>First Operand (wire)</tspan></text></g><g transform="translate(363)"><text y="6"><tspan>1</tspan></text></g></g><g transform="translate(11,39)"/></g></g><g transform="translate(4,52)"><g stroke="black" stroke-width="1" stroke-linecap="round"><line x2="791"/><line y2="31"/><line x2="791" y1="31" y2="31"/><line x1="791" x2="791" y2="31"/><line x1="770" x2="770" y2="3"/><line x1="770" x2="770" y1="31" y2="28"/><line x1="748" x2="748" y2="3"/><line x1="748" x2="748" y1="31" y2="28"/><line x1="727" x2="727" y2="31"/><line x1="705" x2="705" y2="3"/><line x1="705" x2="705" y1="31" y2="28"/><line x1="684" x2="684" y2="3"/><line x1="684" x2="684" y1="31" y2="28"/><line x1="663" x2="663" y2="3"/><line x1="663" x2="663" y1="31" y2="28"/><line x1="641" x2="641" y2="3"/><line x1="641" x2="641" y1="31" y2="28"/><line x1="620" x2="620" y2="3"/><line x1="620" x2="620" y1="31" y2="28"/><line x1="599" x2="599" y2="3"/><line x1="599" x2="599" y1="31" y2="28"/><line x1="577" x2="577" y2="3"/><line x1="577" x2="577" y1="31" y2="28"/><line x1="556" x2="556" y2="3"/><line x1="556" x2="556" y1="31" y2="28"/><line x1="534" x2="534" y2="3"/><line x1="534" x2="534" y1="31" y2="28"/><line x1="513" x2="513" y2="3"/><line x1="513" x2="513" y1="31" y2="28"/><line x1="492" x2="492" y2="3"/><line x1="492" x2="492" y1="31" y2="28"/><line x1="470" x2="470" y2="3"/><line x1="470" x2="470" y1="31" y2="28"/><line x1="449" x2="449" y2="3"/><line x1="449" x2="449" y1="31" y2="28"/><line x1="428" x2="428" y2="3"/><line x1="428" x2="428" y1="31" y2="28"/><line x1="406" x2="406" y2="3"/><line x1="406" x2="406" y1="31" y2="28"/><line x1="385" x2="385" y2="31"/><line x1="363" x2="363" y2="31"/><line x1="342" x2="342" y2="3"/><line x1="342" x2="342" y1="31" y2="28"/><line x1="321" x2="321" y2="3"/><line x1="321" x2="321" y1="31" y2="28"/><line x1="299" x2="299" y2="3"/><line x1="299" x2="299" y1="31" y2="28"/><line x1="278" x2="278" y2="3"/><line x1="278" x2="278" y1="31" y2="28"/><line x1="257" x2="257" y2="3"/><line x1="257" x2="257" y1="31" y2="28"/><line x1="235" x2="235" y2="3"/><line x1="235" x2="235" y1="31" y2="28"/><line x1="214" x2="214" y2="3"/><line x1="214" x2="214" y1="31" y2="28"/><line x1="192" x2="192" y2="3"/><line x1="192" x2="192" y1="31" y2="28"/><line x1="171" x2="171" y2="3"/><line x1="171" x2="171" y1="31" y2="28"/><line x1="150" x2="150" y2="3"/><line x1="150" x2="150" y1="31" y2="28"/><line x1="128" x2="128" y2="3"/><line x1="128" x2="128" y1="31" y2="28"/><line x1="107" x2="107" y2="3"/><line x1="107" x2="107" y1="31" y2="28"/><line x1="86" x2="86" y2="3"/><line x1="86" x2="86" y1="31" y2="28"/><line x1="64" x2="64" y2="3"/><line x1="64" x2="64" y1="31" y2="28"/><line x1="43" x2="43" y2="3"/><line x1="43" x2="43" y1="31" y2="28"/><line x1="21" x2="21" y2="3"/><line x1="21" x2="21" y1="31" y2="28"/></g><g><g><rect width="363" height="31" field="undefined" style="fill-opacity:0.1"/></g><g transform="translate(11,-11)"/><g transform="translate(11,15)"><g transform="translate(748)"><text y="6"><tspan>LOAD</tspan></text></g><g transform="translate(545)"><text y="6"><tspan>First Operand (wire or uint16)</tspan></text></g><g transform="translate(363)"><text y="6"><tspan>T</tspan></text></g></g><g transform="translate(11,39)"/></g></g><g transform="translate(4,21)"><g stroke="black" stroke-width="1" stroke-linecap="round"><line x2="791"/><line y2="31"/><line x2="791" y1="31" y2="31"/><line x1="791" x2="791" y2="31"/><line x1="770" x2="770" y2="3"/><line x1="770" x2="770" y1="31" y2="28"/><line x1="748" x2="748" y2="3"/><line x1="748" x2="748" y1="31" y2="28"/><line x1="727" x2="727" y2="31"/><line x1="705" x2="705" y2="3"/><line x1="705" x2="705" y1="31" y2="28"/><line x1="684" x2="684" y2="3"/><line x1="684" x2="684" y1="31" y2="28"/><line x1="663" x2="663" y2="3"/><line x1="663" x2="663" y1="31" y2="28"/><line x1="641" x2="641" y2="3"/><line x1="641" x2="641" y1="31" y2="28"/><line x1="620" x2="620" y2="3"/><line x1="620" x2="620" y1="31" y2="28"/><line x1="599" x2="599" y2="3"/><line x1="599" x2="599" y1="31" y2="28"/><line x1="577" x2="577" y2="3"/><line x1="577" x2="577" y1="31" y2="28"/><line x1="556" x2="556" y2="3"/><line x1="556" x2="556" y1="31" y2="28"/><line x1="534" x2="534" y2="3"/><line x1="534" x2="534" y1="31" y2="28"/><line x1="513" x2="513" y2="3"/><line x1="513" x2="513" y1="31" y2="28"/><line x1="492" x2="492" y2="3"/><line x1="492" x2="492" y1="31" y2="28"/><line x1="470" x2="470" y2="3"/><line x1="470" x2="470" y1="31" y2="28"/><line x1="449" x2="449" y2="3"/><line x1="449" x2="449" y1="31" y2="28"/><line x1="428" x2="428" y2="3"/><line x1="428" x2="428" y1="31" y2="28"/><line x1="406" x2="406" y2="3"/><line x1="406" x2="406" y1="31" y2="28"/><line x1="385" x2="385" y2="3"/><line x1="385" x2="385" y1="31" y2="28"/><line x1="363" x2="363" y2="3"/><line x1="363" x2="363" y1="31" y2="28"/><line x1="342" x2="342" y2="3"/><line x1="342" x2="342" y1="31" y2="28"/><line x1="321" x2="321" y2="3"/><line x1="321" x2="321" y1="31" y2="28"/><line x1="299" x2="299" y2="3"/><line x1="299" x2="299" y1="31" y2="28"/><line x1="278" x2="278" y2="3"/><line x1="278" x2="278" y1="31" y2="28"/><line x1="257" x2="257" y2="3"/><line x1="257" x2="257" y1="31" y2="28"/><line x1="235" x2="235" y2="3"/><line x1="235" x2="235" y1="31" y2="28"/><line x1="214" x2="214" y2="3"/><line x1="214" x2="214" y1="31" y2="28"/><line x1="192" x2="192" y2="3"/><line x1="192" x2="192" y1="31" y2="28"/><line x1="171" x2="171" y2="3"/><line x1="171" x2="171" y1="31" y2="28"/><line x1="150" x2="150" y2="3"/><line x1="150" x2="150" y1="31" y2="28"/><line x1="128" x2="128" y2="3"/><line x1="128" x2="128" y1="31" y2="28"/><line x1="107" x2="107" y2="3"/><line x1="107" x2="107" y1="31" y2="28"/><line x1="86" x2="86" y2="3"/><line x1="86" x2="86" y1="31" y2="28"/><line x1="64" x2="64" y2="3"/><line x1="64" x2="64" y1="31" y2="28"/><line x1="43" x2="43" y2="3"/><line x1="43" x2="43" y1="31" y2="28"/><line x1="21" x2="21" y2="3"/><line x1="21" x2="21" y1="31" y2="28"/></g><g><g><rect width="727" height="31" field="undefined" style="fill-opacity:0.1"/></g><g transform="translate(11,-11)"/><g transform="translate(11,15)"><g transform="translate(748)"><text y="6"><tspan>NOOP</tspan></text></g></g><g transform="translate(11,39)"/></g></g><g transform="translate(4,-3)"><g transform="translate(11,11)"><text y="6">36</text></g><g transform="translate(32,11)"><text y="6">35</text></g><g transform="translate(353,11)"><text y="6">20</text></g><g transform="translate(374,11)"><text y="6">19</text></g><g transform="translate(396,11)"><text y="6">18</text></g><g transform="translate(502,11)"><text y="6">13</text></g><g transform="translate(524,11)"><text y="6">12</text></g><g transform="translate(716,11)"><text y="6">3</text></g><g transform="translate(738,11)"><text y="6">2</text></g><g transform="translate(780,11)"><text y="6">0</text></g></g></g></svg>