<?xml version="1.0" standalone="no"?>
<!DOCTYPE svg PUBLIC "-//W3C//DTD SVG 1.1//EN" "http://www.w3.org/Graphics/SVG/1.1/DTD/svg11.dtd">
<!-- Created with WaveDrom -->
<svg xmlns="http://www.w3.org/2000/svg" width="1400" height="70" viewBox="0 0 1400 70" class="WaveDrom" xmlns:xlink="http://www.w3.org/1999/xlink"><g transform="translate(0.5,0.5)" text-anchor="middle" font-size="14" font-family="sans-serif" font-weight="normal"><g transform="translate(4,21)"><g stroke="black" stroke-width="1" stroke-linecap="round"><line x2="1391"/><line y2="31"/><line x2="1391" y1="31" y2="31"/><line x1="1391" x2="1391" y2="31"/><line x1="1353" x2="1353" y2="3"/><line x1="1353" x2="1353" y1="31" y2="28"/><line x1="1316" x2="1316" y2="3"/><line x1="1316" x2="1316" y1="31" y2="28"/><line x1="1278" x2="1278" y2="31"/><line x1="1241" x2="1241" y2="3"/><line x1="1241" x2="1241" y1="31" y2="28"/><line x1="1203" x2="1203" y2="3"/><line x1="1203" x2="1203" y1="31" y2="28"/><line x1="1165" x2="1165" y2="3"/><line x1="1165" x2="1165" y1="31" y2="28"/><line x1="1128" x2="1128" y2="3"/><line x1="1128" x2="1128" y1="31" y2="28"/><line x1="1090" x2="1090" y2="3"/><line x1="1090" x2="1090" y1="31" y2="28"/><line x1="1053" x2="1053" y2="3"/><line x1="1053" x2="1053" y1="31" y2="28"/><line x1="1015" x2="1015" y2="3"/><line x1="1015" x2="1015" y1="31" y2="28"/><line x1="977" x2="977" y2="3"/><line x1="977" x2="977" y1="31" y2="28"/><line x1="940" x2="940" y2="3"/><line x1="940" x2="940" y1="31" y2="28"/><line x1="902" x2="902" y2="3"/><line x1="902" x2="902" y1="31" y2="28"/><line x1="865" x2="865" y2="3"/><line x1="865" x2="865" y1="31" y2="28"/><line x1="827" x2="827" y2="3"/><line x1="827" x2="827" y1="31" y2="28"/><line x1="789" x2="789" y2="3"/><line x1="789" x2="789" y1="31" y2="28"/><line x1="752" x2="752" y2="3"/><line x1="752" x2="752" y1="31" y2="28"/><line x1="714" x2="714" y2="3"/><line x1="714" x2="714" y1="31" y2="28"/><line x1="677" x2="677" y2="31"/><line x1="639" x2="639" y2="31"/><line x1="602" x2="602" y2="3"/><line x1="602" x2="602" y1="31" y2="28"/><line x1="564" x2="564" y2="3"/><line x1="564" x2="564" y1="31" y2="28"/><line x1="526" x2="526" y2="3"/><line x1="526" x2="526" y1="31" y2="28"/><line x1="489" x2="489" y2="3"/><line x1="489" x2="489" y1="31" y2="28"/><line x1="451" x2="451" y2="3"/><line x1="451" x2="451" y1="31" y2="28"/><line x1="414" x2="414" y2="3"/><line x1="414" x2="414" y1="31" y2="28"/><line x1="376" x2="376" y2="3"/><line x1="376" x2="376" y1="31" y2="28"/><line x1="338" x2="338" y2="3"/><line x1="338" x2="338" y1="31" y2="28"/><line x1="301" x2="301" y2="3"/><line x1="301" x2="301" y1="31" y2="28"/><line x1="263" x2="263" y2="3"/><line x1="263" x2="263" y1="31" y2="28"/><line x1="226" x2="226" y2="3"/><line x1="226" x2="226" y1="31" y2="28"/><line x1="188" x2="188" y2="3"/><line x1="188" x2="188" y1="31" y2="28"/><line x1="150" x2="150" y2="3"/><line x1="150" x2="150" y1="31" y2="28"/><line x1="113" x2="113" y2="3"/><line x1="113" x2="113" y1="31" y2="28"/><line x1="75" x2="75" y2="3"/><line x1="75" x2="75" y1="31" y2="28"/><line x1="38" x2="38" y2="31"/></g><g><g><rect x="677" width="602" height="31" field="undefined" style="fill-opacity:0.1"/><rect x="639" width="38" height="31" field="undefined" style="fill-opacity:0.1"/><rect x="38" width="602" height="31" field="undefined" style="fill-opacity:0.1"/><rect width="38" height="31" field="undefined" style="fill-opacity:0.1"/></g><g transform="translate(19,-11)"><g transform="translate(1353)"><text y="6">0</text></g><g transform="translate(1278)"><text y="6">2</text></g><g transform="translate(1241)"><text y="6">3</text></g><g transform="translate(677)"><text y="6">18</text></g><g transform="translate(639)"><text y="6">19</text></g><g transform="translate(602)"><text y="6">20</text></g><g transform="translate(38)"><text y="6">35</text></g><g transform="translate(0)"><text y="6">36</text></g></g><g transform="translate(19,15)"><g transform="translate(1316)"><text y="6"><tspan>NOOP</tspan></text></g></g><g transform="translate(19,39)"><g><g transform="translate(1353)"><text y="6">0</text></g><g transform="translate(1316)"><text y="6">0</text></g><g transform="translate(1278)"><text y="6">0</text></g></g></g></g></g></g></svg>