<?xml version="1.0" standalone="no"?>
<!DOCTYPE svg PUBLIC "-//W3C//DTD SVG 1.1//EN" "http://www.w3.org/Graphics/SVG/1.1/DTD/svg11.dtd">
<!-- Created with WaveDrom -->
<svg xmlns="http://www.w3.org/2000/svg" width="800" height="87" viewBox="0 0 800 87" class="WaveDrom" xmlns:xlink="http://www.w3.org/1999/xlink"><g transform="translate(0.5,0.5)" text-anchor="middle" font-size="14" font-family="sans-serif" font-weight="normal"><g transform="translate(4,52)"><g stroke="black" stroke-width="1" stroke-linecap="round"><line x2="791"/><line y2="31"/><line x2="791" y1="31" y2="31"/><line x1="791" x2="791" y2="31"/><line x1="744" x2="744" y2="3"/><line x1="744" x2="744" y1="31" y2="28"/><line x1="698" x2="698" y2="3"/><line x1="698" x2="698" y1="31" y2="28"/><line x1="651" x2="651" y2="3"/><line x1="651" x2="651" y1="31" y2="28"/><line x1="605" x2="605" y2="3"/><line x1="605" x2="605" y1="31" y2="28"/><line x1="558" x2="558" y2="31"/><line x1="512" x2="512" y2="3"/><line x1="512" x2="512" y1="31" y2="28"/><line x1="465" x2="465" y2="3"/><line x1="465" x2="465" y1="31" y2="28"/><line x1="419" x2="419" y2="3"/><line x1="419" x2="419" y1="31" y2="28"/><line x1="372" x2="372" y2="3"/><line x1="372" x2="372" y1="31" y2="28"/><line x1="326" x2="326" y2="31"/><line x1="279" x2="279" y2="3"/><line x1="279" x2="279" y1="31" y2="28"/><line x1="233" x2="233" y2="3"/><line x1="233" x2="233" y1="31" y2="28"/><line x1="186" x2="186" y2="3"/><line x1="186" x2="186" y1="31" y2="28"/><line x1="140" x2="140" y2="3"/><line x1="140" x2="140" y1="31" y2="28"/><line x1="93" x2="93" y2="3"/><line x1="93" x2="93" y1="31" y2="28"/><line x1="47" x2="47" y2="31"/></g><g><g><rect x="47" width="279" height="31" field="undefined" style="fill-opacity:0.1"/><rect width="47" height="31" field="1" style="fill-opacity:0.1;fill:#00ffd5"/></g><g transform="translate(23,-11)"/><g transform="translate(23,15)"><g transform="translate(651)"><text y="6"><tspan>second char</tspan></text></g><g transform="translate(419)"><text y="6"><tspan>first char</tspan></text></g><g transform="translate(0)"><text y="6"><tspan>1</tspan></text></g></g><g transform="translate(23,39)"/></g></g><g transform="translate(4,21)"><g stroke="black" stroke-width="1" stroke-linecap="round"><line x2="791"/><line y2="31"/><line x2="791" y1="31" y2="31"/><line x1="791" x2="791" y2="31"/><line x1="744" x2="744" y2="3"/><line x1="744" x2="744" y1="31" y2="28"/><line x1="698" x2="698" y2="3"/><line x1="698" x2="698" y1="31" y2="28"/><line x1="651" x2="651" y2="3"/><line x1="651" x2="651" y1="31" y2="28"/><line x1="605" x2="605" y2="3"/><line x1="605" x2="605" y1="31" y2="28"/><line x1="558" x2="558" y2="3"/><line x1="558" x2="558" y1="31" y2="28"/><line x1="512" x2="512" y2="3"/><line x1="512" x2="512" y1="31" y2="28"/><line x1="465" x2="465" y2="3"/><line x1="465" x2="465" y1="31" y2="28"/><line x1="419" x2="419" y2="3"/><line x1="419" x2="419" y1="31" y2="28"/><line x1="372" x2="372" y2="3"/><line x1="372" x2="372" y1="31" y2="28"/><line x1="326" x2="326" y2="3"/><line x1="326" x2="326" y1="31" y2="28"/><line x1="279" x2="279" y2="3"/><line x1="279" x2="279" y1="31" y2="28"/><line x1="233" x2="233" y2="3"/><line x1="233" x2="233" y1="31" y2="28"/><line x1="186" x2="186" y2="3"/><line x1="186" x2="186" y1="31" y2="28"/><line x1="140" x2="140" y2="3"/><line x1="140" x2="140" y1="31" y2="28"/><line x1="93" x2="93" y2="3"/><line x1="93" x2="93" y1="31" y2="28"/><line x1="47" x2="47" y2="31"/></g><g><g><rect width="47" height="31" field="0" style="fill-opacity:0.1;fill:#00ffd5"/></g><g transform="translate(23,-11)"/><g transform="translate(23,15)"><g transform="translate(396)"><text y="6"><tspan>uint16</tspan></text></g><g transform="translate(0)"><text y="6"><tspan>0</tspan></text></g></g><g transform="translate(23,39)"/></g></g><g transform="translate(4,-3)"><g transform="translate(23,11)"><text y="6">16</text></g><g transform="translate(70,11)"><text y="6">15</text></g><g transform="translate(302,11)"><text y="6">10</text></g><g transform="translate(349,11)"><text y="6">9</text></g><g transform="translate(535,11)"><text y="6">5</text></g><g transform="translate(582,11)"><text y="6">4</text></g><g transform="translate(768,11)"><text y="6">0</text></g></g></g></svg>